<?xml version="1.0" encoding="UTF-8"?>
<svg width="24px" height="24px" viewBox="0 0 24 24" version="1.1" xmlns="http://www.w3.org/2000/svg" xmlns:xlink="http://www.w3.org/1999/xlink">
    <!-- Generator: Sketch 52.6 (67491) - http://www.bohemiancoding.com/sketch -->
    <title>icon-02</title>
    <desc>Created with Sketch.</desc>
    <g id="Page-1" stroke="none" stroke-width="1" fill="none" fill-rule="evenodd">
        <g id="A說明" transform="translate(-1287.000000, -1231.000000)" fill="#EA1D24">
            <g id="Group-9" transform="translate(1287.000000, 1231.000000)">
                <g id="doubt-copy" transform="translate(7.000000, 5.000000)">
                    <path d="M4.4901832,12 C3.66665912,12 3,12.681763 3,13.5 C3,14.2986636 3.64702552,15 4.4901832,15 C5.33334088,15 6,14.2986636 6,13.5 C6,12.681763 5.31370729,12 4.4901832,12 Z" id="Path"></path>
                    <path d="M4.32439284,0 C1.36105055,0 0,1.55645879 0,2.60697242 C0,3.36575535 0.724484105,3.71592656 1.31709172,3.71592656 C2.50245906,3.71592656 2.01959641,2.21790827 4.2586067,2.21790827 C5.35620849,2.21790827 6.23424428,2.64586535 6.23424428,3.54087465 C6.23424428,4.59138828 5.00499417,5.19459948 4.28058612,5.73923535 C3.64394362,6.22563294 2.8097906,7.0233088 2.8097906,8.69651379 C2.8097906,9.70806708 3.11712214,10 4.0170613,10 C5.09275972,10 5.31224966,9.57197552 5.31224966,9.20232414 C5.31224966,8.19077085 5.33415302,7.60703982 6.54142372,6.77047103 C7.13418344,6.36192672 9,5.03896034 9,3.21018361 C9,1.38140689 7.13418344,0 4.32439284,0 Z" id="Path"></path>
                </g>
            </g>
        </g>
    </g>
</svg>