<?xml version="1.0" encoding="UTF-8"?>
<svg width="24px" height="24px" viewBox="0 0 24 24" version="1.1" xmlns="http://www.w3.org/2000/svg" xmlns:xlink="http://www.w3.org/1999/xlink">
    <!-- Generator: Sketch 52.6 (67491) - http://www.bohemiancoding.com/sketch -->
    <title>icon-01</title>
    <desc>Created with Sketch.</desc>
    <g id="Page-1" stroke="none" stroke-width="1" fill="none" fill-rule="evenodd">
        <g id="A說明" transform="translate(-1287.000000, -1161.000000)" stroke="#EA1D24" stroke-width="0.8">
            <g id="Group-7" transform="translate(1287.000000, 1161.000000)">
                <g id="Group-19" transform="translate(4.000000, 4.000000)">
                    <path d="M2.65094007,13.0709236 L1.98668014,13.0709236 C1.60545271,13.0709236 1.29353935,12.7567418 1.29353935,12.3727418 L1.29353935,6.90365091 C1.29353935,6.51965091 1.60545271,6.20546909 1.98668014,6.20546909 L2.65094007,6.20546909 C3.03216751,6.20546909 3.34408087,6.51965091 3.34408087,6.90365091 L3.34408087,12.3727418 C3.34408087,12.7567418 3.03216751,13.0709236 2.65094007,13.0709236 Z" id="Stroke-1"></path>
                    <path d="M4.9051148,15.6707491 L4.9051148,15.2482909 C4.9051148,15.0945164 5.03005343,14.9686691 5.18271769,14.9686691 L6.92781516,14.9686691 C7.08053718,14.9686691 7.20541805,15.0945164 7.20541805,15.2482909 L7.20541805,15.6707491 C7.20541805,15.8245818 7.08053718,15.9503709 6.92781516,15.9503709 L5.18271769,15.9503709 C5.03005343,15.9503709 4.9051148,15.8245818 4.9051148,15.6707491 Z" id="Stroke-3"></path>
                    <path d="M1.29353935,12.1691055 C0.594622383,12.1691055 0.0227812274,11.9374836 0.0227812274,11.6543127 L0.0227812274,7.62208 C0.0227812274,7.33890909 0.594622383,7.10728727 1.29353935,7.10728727" id="Stroke-5"></path>
                    <path d="M14.7231422,12.1691055 C15.4220592,12.1691055 15.9939004,11.9374836 15.9939004,11.6543127 L15.9939004,7.62208 C15.9939004,7.33890909 15.4220592,7.10728727 14.7231422,7.10728727" id="Stroke-7"></path>
                    <path d="M14.0300014,13.0709236 L13.3657415,13.0709236 C12.9845141,13.0709236 12.6726007,12.7567418 12.6726007,12.3727418 L12.6726007,6.90365091 C12.6726007,6.51965091 12.9845141,6.20546909 13.3657415,6.20546909 L14.0300014,6.20546909 C14.4112289,6.20546909 14.7231422,6.51965091 14.7231422,6.90365091 L14.7231422,12.3727418 C14.7231422,12.7567418 14.4112289,13.0709236 14.0300014,13.0709236 Z" id="Stroke-9"></path>
                    <path d="M1.84227581,4.28546909 C1.84227581,4.28546909 1.29353935,5.18728727 1.29353935,6.70001455" id="Stroke-11"></path>
                    <path d="M14.2321675,4.51819636 C14.2321675,4.51819636 14.780904,5.42001455 14.780904,6.93274182" id="Stroke-13"></path>
                    <path d="M1.29353935,12.3727418 C1.29353935,12.3727418 1.58234801,14.87456 4.75924332,15.4854691" id="Stroke-15"></path>
                    <path d="M14.2186339,4.71489745 C13.9921502,4.71489745 13.7729444,4.58561745 13.6582874,4.35818473 C13.6560347,4.35370473 13.2626773,3.60461382 12.3592838,2.86971927 C11.1537386,1.88912291 9.65118267,1.39195927 7.89314657,1.39195927 C6.13892274,1.39195927 4.67616462,1.847232 3.54559422,2.745152 C2.70539206,3.41243927 2.3688722,4.09194473 2.36557978,4.098752 C2.20864116,4.43306473 1.82793357,4.56635927 1.51411408,4.39931927 C1.20029458,4.23216291 1.0740852,3.82343564 1.23096606,3.48906473 C1.29710325,3.34814836 2.90796245,0.0381847273 7.89314657,0.0381847273 C12.8657964,0.0381847273 14.7020996,3.56737745 14.777883,3.71760291 C14.9438903,4.04702836 14.8278469,4.45732655 14.5186484,4.63419927 C14.4230527,4.68894836 14.3201213,4.71489745 14.2186339,4.71489745 Z" id="Stroke-17"></path>
                </g>
            </g>
        </g>
    </g>
</svg>